:SAMPLES-PER-SECOND 30
:FULLY-SPECIFIED
:DEGREES
367
root  -3.45642 40.9344 0.649749 -109.752 -89.2633 117.796
RightUpLeg  -2.77934 -1.04297 -2.68502
RightLeg  -4.14481 -19.4894 1.37793
RightFoot  0.582135 -0.369031 3.56973
RightToes  -3.11842e-008 1.75238e-005 3.56266e-009
Spine  -1.55017 -0.147071 -2.64491
Spine1  -16.0278 0.0235826 -0.0978825
HEad  -9.50497 1.25874 -2.75052
LeftShoulder1  3.2677 -6.60878 -26.1952
LeftArm  26.7037 -9.47535 -28.4675
LeftForeArm  146.061 -49.5759 -166.475
LeftHand  -0.570638 -3.93117 7.38017
RightShoulder  2.35959 5.4145 20.0906
RightArm  3.57206 19.7114 26.8587
RightForeArm  109.191 54.9235 161.511
RightHand  -1.25687 5.39093 -13.7756
LeftUpLeg  -3.01766 -0.973496 0.975619
LeftLeg  -6.06843 17.0709 -2.04626
LeftFoot  1.85652 0.163269 -1.51292
LeftToes  4.7713e-008 1.46693e-008 1.32589e-009
368
root  -3.44331 40.9337 0.684819 -136.075 -88.9261 144.132
RightUpLeg  -2.96083 -1.03454 -2.75044
RightLeg  -3.96917 -18.9901 1.25975
RightFoot  0.573553 -0.379199 3.722
RightToes  -3.11842e-008 1.75238e-005 3.56266e-009
Spine  -2.5693 -0.0568639 -2.54185
Spine1  -14.6498 0.126475 -0.0942542
HEad  -9.79413 0.293814 -2.58416
LeftShoulder1  3.44098 -6.98138 -26.723
LeftArm  32.0219 -4.62413 -27.4117
LeftForeArm  147.938 -52.513 -165.259
LeftHand  -0.642198 -4.65908 7.73131
RightShoulder  2.40788 5.57009 20.172
RightArm  -1.86723 23.2163 28.0874
RightForeArm  108.891 54.882 161.522
RightHand  -1.20458 4.82751 -13.9111
LeftUpLeg  -2.96366 -1.04229 0.871793
LeftLeg  -6.152 17.7209 -2.0876
LeftFoot  1.79856 0.157481 -1.45455
LeftToes  4.7713e-008 1.46693e-008 1.32589e-009
369
root  -3.43305 40.9333 0.704085 -144.674 -88.5762 152.734
RightUpLeg  -3.05657 -1.04512 -2.80129
RightLeg  -3.9327 -18.5768 1.21797
RightFoot  0.623588 -0.372558 3.61373
RightToes  -3.11842e-008 1.75238e-005 3.56266e-009
Spine  -2.09408 -0.170422 -2.09732
Spine1  -15.2902 0.00657132 -0.650472
HEad  -9.59065 0.354268 -2.18758
LeftShoulder1  3.46357 -6.99962 -26.885
LeftArm  36.0295 0.147518 -26.3194
LeftForeArm  152.268 -55.632 -163.945
LeftHand  -0.704885 -3.54544 9.39441
RightShoulder  2.46673 5.63116 20.6753
RightArm  -5.49288 26.0735 29.5585
RightForeArm  110.096 54.8552 161.597
RightHand  -1.29017 5.30568 -14.2323
LeftUpLeg  -2.94568 -1.0785 0.809093
LeftLeg  -6.14847 18.1643 -2.10896
LeftFoot  1.77959 0.154617 -1.43794
LeftToes  4.7713e-008 1.46693e-008 1.32589e-009
370
root  -3.40568 40.9331 0.723237 -152.314 -88.0643 160.413
RightUpLeg  -3.33607 -1.04345 -2.86168
RightLeg  -3.69503 -18.0607 1.10924
RightFoot  0.644348 -0.373077 3.61681
RightToes  -3.11842e-008 1.75238e-005 3.56266e-009
Spine  -2.60118 -0.0703402 -1.89362
Spine1  -14.5242 0.112726 -0.847873
HEad  -9.68384 1.12325 -1.769
LeftShoulder1  3.47319 -6.98954 -27.0123
LeftArm  36.9425 2.70397 -25.6824
LeftForeArm  154.806 -58.8473 -162.225
LeftHand  -0.677199 -3.31623 9.26566
RightShoulder  2.40834 5.49299 20.4232
RightArm  -8.09925 28.7268 31.4362
RightForeArm  110.771 54.4022 161.908
RightHand  -1.36604 5.09115 -15.3391
LeftUpLeg  -2.9276 -1.11881 0.745739
LeftLeg  -6.25535 18.7445 -2.18272
LeftFoot  1.80988 0.149553 -1.37918
LeftToes  4.7713e-008 1.46693e-008 1.32589e-009
371
root  -3.39818 40.933 0.738185 -156.714 -87.7844 164.685
RightUpLeg  -3.23577 -0.991275 -2.82177
RightLeg  -3.73081 -17.7787 1.07156
RightFoot  0.707689 -0.382128 3.75244
RightToes  -3.11842e-008 1.75238e-005 3.56266e-009
Spine  -2.80816 -0.0372266 -1.56687
Spine1  -14.0732 0.146759 -1.15681
HEad  -9.6502 0.923887 -1.75366
LeftShoulder1  3.4838 -7.02143 -27.0118
LeftArm  36.1468 4.11359 -25.0806
LeftForeArm  154.274 -61.0975 -160.601
LeftHand  -0.585371 -3.06384 8.27642
RightShoulder  2.34693 5.34419 20.1632
RightArm  -9.17056 30.4281 33.2764
RightForeArm  111.579 53.7356 162.347
RightHand  -1.30842 5.02572 -14.7915
LeftUpLeg  -2.74809 -1.07686 0.76576
LeftLeg  -6.30227 18.9986 -2.20495
LeftFoot  1.80114 0.145994 -1.33875
LeftToes  4.7713e-008 1.46693e-008 1.32589e-009
372
root  -3.39044 40.9331 0.74739 -158.861 -87.6002 166.747
RightUpLeg  -3.1957 -0.967366 -2.79747
RightLeg  -3.70608 -17.6095 1.03914
RightFoot  0.729379 -0.374716 3.63262
RightToes  -3.11842e-008 1.75238e-005 3.56266e-009
Spine  -3.08008 -0.110938 -1.33875
Spine1  -13.6064 0.0819202 -1.38656
HEad  -9.69696 0.9969 -2.00295
LeftShoulder1  3.36829 -6.83962 -26.4587
LeftArm  34.144 4.51874 -24.9805
LeftForeArm  153.082 -62.5595 -159.334
LeftHand  -0.5211 -2.92102 7.5105
RightShoulder  2.32658 5.25139 20.2154
RightArm  -8.93009 31.3687 34.7076
RightForeArm  112.134 52.9167 162.843
RightHand  -1.16748 5.21497 -13.0274
LeftUpLeg  -2.65523 -1.0403 0.779539
LeftLeg  -6.28159 19.1735 -2.21714
LeftFoot  1.75668 0.147456 -1.37697
LeftToes  4.7713e-008 1.46693e-008 1.32589e-009
373
root  -3.38741 40.9334 0.75192 -159.906 -87.5287 167.677
RightUpLeg  -3.12764 -0.9649 -2.78595
RightLeg  -3.60929 -17.5182 1.00366
RightFoot  0.661839 -0.380451 3.7168
RightToes  -3.11842e-008 1.75238e-005 3.56266e-009
Spine  -3.62158 -0.174084 -1.35076
Spine1  -12.7522 0.0335733 -1.33682
HEad  -9.74815 0.801815 -2.1696
LeftShoulder1  3.29574 -6.75183 -26.0131
LeftArm  30.9077 3.66256 -25.0689
LeftForeArm  151.771 -63.1884 -158.669
LeftHand  -0.484761 -2.48712 7.36128
RightShoulder  2.31025 5.20271 20.1737
RightArm  -7.46543 31.1363 35.4613
RightForeArm  111.853 51.6613 163.517
RightHand  -1.22202 5.4203 -13.3676
LeftUpLeg  -2.57052 -0.996594 0.794092
LeftLeg  -6.17541 19.2125 -2.19122
LeftFoot  1.68359 0.148441 -1.40826
LeftToes  4.7713e-008 1.46693e-008 1.32589e-009
